P3
64 48
255
253   0   0  253   0   0  253   0   0  253   0   0  253   0   0  253   0   0  253   0   0  253   0   0  253   0   0  253   0   0  253   0   0  253   0   0  253   0   0  253   0   0  253   0   0  253   0   0  253   0   0  253   0   0  253   0   0  253   0   0  253   0   0  253   0   0  253   0   0  253   0   0  253   0   0  253   0   0  253   0   0  253   0   0  253   0   0  253   0   0  253   0   0  253   0   0  253   0   0  253   0   0  253   0   0  253   0   0  253   0   0  253   0   0  253   0   0  253   0   0  253   0   0  253   0   0  253   0   0  253   0   0  253   0   0  253   0   0  253   0   0  253   0   0  
253   0   0  253   0   0  253   0   0  253   0   0  253   0   0  253   0   0  253   0   0  253   0   0  253   0   0  253   0   0  253   0   0  253   0   0  253   0   0  253   0   0  253   0   0  253   0   0  253   0   0  253   0   0  253   0   0  253   0   0  253   0   0  253   0   0  253   0   0  253   0   0  253   0   0  253   0   0  253   0   0  253   0   0  253   0   0  253   0   0  253   0   0  253   0   0  253   0   0  253   0   0  253   0   0  253   0   0  253   0   0  253   0   0  253   0   0  253   0   0  253   0   0  253   0   0  253   0   0  253   0   0  253   0   0  253   0   0  253   0   0  253   0   0  
253   0   0  253   0   0  253   0   0  253   0   0  253   0   0  253   0   0  253   0   0  253   0   0  253   0   0  253   0   0  253   0   0  253   0   0  253   0   0  253   0   0  253   0   0  253   0   0  253   0   0  253   0   0  253   0   0  253   0   0  253   0   0  253   0   0  253   0   0  253   0   0  253   0   0  253   0   0  253   0   0  253   0   0  253   0   0  253   0   0  253   0   0  253   0   0  253   0   0  253   0   0  253   0   0  253   0   0  253   0   0  253   0   0  253   0   0  253   0   0  253   0   0  253   0   0  253   0   0  253   0   0  253   0   0  253   0   0  253   0   0  253   0   0  
253   0   0  253   0   0  253   0   0  253   0   0  253   0   0  253   0   0  253   0   0  253   0   0  253   0   0  253   0   0  253   0   0  253   0   0  253   0   0  253   0   0  253   0   0  253   0   0  253   0   0  253   0   0  253   0   0  253   0   0  253   0   0  253   0   0  253   0   0  253   0   0  253   0   0  253   0   0  253   0   0  253   0   0  253   0   0  253   0   0  253   0   0  253   0   0  253   0   0  253   0   0  253   0   0  253   0   0  253   0   0  253   0   0  253   0   0  253   0   0  253   0   0  253   0   0  253   0   0  253   0   0  253   0   0  253   0   0  253   0   0  253   0   0  
253   0   0  253   0   0  253   0   0  253   0   0  253   0   0  253   0   0  253   0   0  253   0   0  253   0   0  253   0   0  253   0   0  253   0   0  253   0   0  253   0   0  253   0   0  253   0   0  253   0   0  253   0   0  253   0   0  253   0   0  253   0   0  253   0   0  253   0   0  253   0   0  253   0   0  253   0   0  253   0   0  253   0   0  253   0   0  253   0   0  253   0   0  253   0   0  253   0   0  253   0   0  253   0   0  253   0   0  253   0   0  253   0   0  253   0   0  253   0   0  253   0   0  253   0   0  253   0   0  253   0   0  253   0   0  253   0   0  253   0   0  253   0   0  
253   0   0  253   0   0  253   0   0  253   0   0  253   0   0  253   0   0  253   0   0  253   0   0  253   0   0  253   0   0  253   0   0  253   0   0  253   0   0  253   0   0  253   0   0  253   0   0  253   0   0  253   0   0  253   0   0  253   0   0  253   0   0  253   0   0  253   0   0  253   0   0  253   0   0  253   0   0  253   0   0  253   0   0  253   0   0  253   0   0  253   0   0  253   0   0  253   0   0  253   0   0  253   0   0  253   0   0  253   0   0  253   0   0  253   0   0  253   0   0  253   0   0  253   0   0  253   0   0  253   0   0  253   0   0  253   0   0  253   0   0  208  20  17  
253   0   0  253   0   0  253   0   0  253   0   0  253   0   0  253   0   0  253   0   0  253   0   0  253   0   0  253   0   0  253   0   0  253   0   0  253   0   0  253   0   0  253   0   0  253   0   0  253   0   0  253   0   0  253   0   0  253   0   0  253   0   0  253   0   0  253   0   0  253   0   0  253   0   0  253   0   0  253   0   0  253   0   0  253   0   0  253   0   0  253   0   0  253   0   0  253   0   0  253   0   0  253   0   0  253   0   0  253   0   0  253   0   0  253   0   0  253   0   0  253   0   0  253   0   0  253   0   0  253   0   0  253   0   0  253   0   0  253   0   0  164  38  37  
164  38  37  164  38  37  164  38  37  164  38  37  164  38  37  164  38  37  164  38  37  164  38  37  164  38  37  164  38  37  164  38  37  164  38  37  164  38  37  164  38  37  164  38  37  164  38  37  164  38  37  164  38  37  164  38  37  164  38  37  164  38  37  164  38  37  164  38  37  164  38  37  164  38  37  164  38  37  164  38  37  164  38  37  164  38  37  164  38  37  164  38  37  164  38  37  164  38  37  164  38  37  164  38  37  164  38  37  164  38  37  164  38  37  164  38  37  164  38  37  164  38  37  164  38  37  164  38  37  164  38  37  164  38  37  164  38  37  164  38  37  119  58  56  
255 255 255  255 255 255  255 255 255  255 255 255  255 255 255  255 255 255  255 255 255  255 255 255  255 255 255  255 255 255  255 255 255  255 255 255  255 255 255  255 255 255  255 255 255  255 255 255  255 255 255  255 255 255  255 255 255  255 255 255  255 255 255  255 255 255  255 255 255  255 255 255  255 255 255  255 255 255  255 255 255  255 255 255  255 255 255  255 255 255  255 255 255  255 255 255  255 255 255  255 255 255  255 255 255  255 255 255  255 255 255  255 255 255  255 255 255  255 255 255  255 255 255  255 255 255  255 255 255  255 255 255  255 255 255  255 255 255  255 255 255  255 255 255  
255 255 255  255 255 255  255 255 255  255 255 255  255 255 255  255 255 255  255 255 255  255 255 255  255 255 255  255 255 255  255 255 255  255 255 255  255 255 255  255 255 255  255 255 255  255 255 255  255 255 255  255 255 255  255 255 255  255 255 255  255 255 255  255 255 255  255 255 255  255 255 255  255 255 255  255 255 255  255 255 255  255 255 255  255 255 255  255 255 255  255 255 255  255 255 255  255 255 255  255 255 255  255 255 255  255 255 255  255 255 255  255 255 255  255 255 255  255 255 255  255 255 255  255 255 255  255 255 255  255 255 255  255 255 255  255 255 255  255 255 255  255 255 255  
255 255 255  255 255 255  255 255 255  255 255 255  255 255 255  255 255 255  255 255 255  255 255 255  255 255 255  255 255 255  255 255 255  255 255 255  255 255 255  255 255 255  255 255 255  255 255 255  255 255 255  255 255 255  255 255 255  255 255 255  255 255 255  255 255 255  255 255 255  255 255 255  255 255 255  255 255 255  255 255 255  255 255 255  255 255 255  255 255 255  255 255 255  255 255 255  255 255 255  255 255 255  255 255 255  255 255 255  255 255 255  255 255 255  255 255 255  255 255 255  255 255 255  255 255 255  255 255 255  255 255 255  255 255 255  255 255 255  255 255 255  255 255 255  
255 255 255  255 255 255  255 255 255  255 255 255  255 255 255  255 255 255  255 255 255  255 255 255  255 255 255  255 255 255  255 255 255  255 255 255  255 255 255  255 255 255  255 255 255  255 255 255  255 255 255  255 255 255  255 255 255  255 255 255  255 255 255  255 255 255  255 255 255  255 255 255  255 255 255  255 255 255  255 255 255  255 255 255  255 255 255  255 255 255  255 255 255  255 255 255  255 255 255  255 255 255  255 255 255  255 255 255  255 255 255  255 255 255  255 255 255  255 255 255  255 255 255  255 255 255  255 255 255  255 255 255  255 255 255  255 255 255  255 255 255  236 255 235  
255 255 255  255 255 255  255 255 255  255 255 255  255 255 255  255 255 255  255 255 255  255 255 255  255 255 255  255 255 255  255 255 255  255 255 255  255 255 255  255 255 255  255 255 255  255 255 255  255 255 255  255 255 255  255 255 255  255 255 255  255 255 255  255 255 255  255 255 255  255 255 255  255 255 255  255 255 255  255 255 255  255 255 255  255 255 255  255 255 255  255 255 255  255 255 255  255 255 255  255 255 255  255 255 255  255 255 255  255 255 255  255 255 255  255 255 255  255 255 255  255 255 255  255 255 255  255 255 255  255 255 255  255 255 255  255 255 255  255 255 255  217 255 217  
217 255 217  217 255 217  217 255 217  217 255 217  217 255 217  217 255 217  217 255 217  217 255 217  217 255 217  217 255 217  217 255 217  217 255 217  217 255 217  217 255 217  217 255 217  217 255 217  217 255 217  217 255 217  217 255 217  217 255 217  217 255 217  217 255 217  217 255 217  217 255 217  217 255 217  217 255 217  217 255 217  217 255 217  217 255 217  217 255 217  217 255 217  197 255 198  180 255 180  180 255 180  180 255 180  180 255 180  180 255 180  180 255 180  180 255 180  180 255 180  180 255 180  180 255 180  180 255 180  180 255 180  180 255 180  180 255 180  180 255 180  161 255 160  
180 255 180  180 255 180  180 255 180  180 255 180  180 255 180  180 255 180  180 255 180  180 255 180  180 255 180  180 255 180  180 255 180  180 255 180  180 255 180  180 255 180  180 255 180  180 255 180  180 255 180  180 255 180  180 255 180  180 255 180  180 255 180  180 255 180  180 255 180  180 255 180  180 255 180  180 255 180  180 255 180  180 255 180  180 255 180  180 255 180  180 255 180  141 255 142    0 254   0    0 254   0    0 254   0    0 254   0    0 254   0    0 254   0    0 254   0    0 254   0    0 254   0    0 254   0    0 254   0    0 254   0    0 254   0    0 254   0    0 254   0    0 254   0  
 36 229  36   36 229  36   36 229  36   36 229  36   36 229  36   36 229  36   36 229  36   36 229  36   36 229  36   36 229  36   36 229  36   36 229  36   36 229  36   36 229  36   36 229  36   36 229  36   36 229  36   36 229  36   36 229  36   36 229  36   36 229  36   36 229  36   36 229  36   36 229  36   36 229  36   36 229  36   36 229  36   36 229  36   36 229  36   36 229  36   36 229  36   16 242  18    0 254   0    0 254   0    0 254   0    0 254   0    0 254   0    0 254   0    0 254   0    0 254   0    0 254   0    0 254   0    0 254   0    0 254   0    0 254   0    0 254   0    0 254   0    0 254   0  
  0 254   0    0 254   0    0 254   0    0 254   0    0 254   0    0 254   0    0 254   0    0 254   0    0 254   0    0 254   0    0 254   0    0 254   0    0 254   0    0 254   0    0 254   0    0 254   0    0 254   0    0 254   0    0 254   0    0 254   0    0 254   0    0 254   0    0 254   0    0 254   0    0 254   0    0 254   0    0 254   0    0 254   0    0 254   0    0 254   0    0 254   0    0 254   0    0 254   0    0 254   0    0 254   0    0 254   0    0 254   0    0 254   0    0 254   0    0 254   0    0 254   0    0 254   0    0 254   0    0 254   0    0 254   0    0 254   0    0 254   0    0 254   0  
  0 254   0    0 254   0    0 254   0    0 254   0    0 254   0    0 254   0    0 254   0    0 254   0    0 254   0    0 254   0    0 254   0    0 254   0    0 254   0    0 254   0    0 254   0    0 254   0    0 254   0    0 254   0    0 254   0    0 254   0    0 254   0    0 254   0    0 254   0    0 254   0    0 254   0    0 254   0    0 254   0    0 254   0    0 254   0    0 254   0    0 254   0    0 254   0    0 254   0    0 254   0    0 254   0    0 254   0    0 254   0    0 254   0    0 254   0    0 254   0    0 254   0    0 254   0    0 254   0    0 254   0    0 254   0    0 254   0    0 254   0    0 254   0  
  0 254   0    0 254   0    0 254   0    0 254   0    0 254   0    0 254   0    0 254   0    0 254   0    0 254   0    0 254   0    0 254   0    0 254   0    0 254   0    0 254   0    0 254   0    0 254   0    0 254   0    0 254   0    0 254   0    0 254   0    0 254   0    0 254   0    0 254   0    0 254   0    0 254   0    0 254   0    0 254   0    0 254   0    0 254   0    0 254   0    0 254   0    0 254   0    0 254   0    0 254   0    0 254   0    0 254   0    0 254   0    0 254   0    0 254   0    0 254   0    0 254   0    0 254   0    0 254   0    0 254   0    0 254   0    0 254   0    0 254   0    0 254   0  
  0 254   0    0 254   0    0 254   0    0 254   0    0 254   0    0 254   0    0 254   0    0 254   0    0 254   0    0 254   0    0 254   0    0 254   0    0 254   0    0 254   0    0 254   0    0 254   0    0 254   0    0 254   0    0 254   0    0 254   0    0 254   0    0 254   0    0 254   0    0 254   0    0 254   0    0 254   0    0 254   0    0 254   0    0 254   0    0 254   0    0 254   0    0 254   0    0 254   0    0 254   0    0 254   0    0 254   0    0 254   0    0 254   0    0 254   0    0 254   0    0 254   0    0 254   0    0 254   0    0 254   0    0 254   0    0 254   0    0 254   0    0 254   0  
  0 254   0    0 254   0    0 254   0    0 254   0    0 254   0    0 254   0    0 254   0    0 254   0    0 254   0    0 254   0    0 254   0    0 254   0    0 254   0    0 254   0    0 254   0    0 254   0    0 254   0    0 254   0    0 254   0    0 254   0    0 254   0    0 254   0    0 254   0    0 254   0    0 254   0    0 254   0    0 254   0    0 254   0    0 254   0    0 254   0    0 254   0    0 254   0    0 254   0    0 254   0    0 254   0    0 254   0    0 254   0    0 254   0    0 254   0    0 254   0    0 254   0    0 254   0    0 254   0    0 254   0    0 254   0    0 254   0    0 254   0    0 254   0  
  0 254   0    0 254   0    0 254   0    0 254   0    0 254   0    0 254   0    0 254   0    0 254   0    0 254   0    0 254   0    0 254   0    0 254   0    0 254   0    0 254   0    0 254   0    0 254   0    0 254   0    0 254   0    0 254   0    0 254   0    0 254   0    0 254   0    0 254   0    0 254   0    0 254   0    0 254   0    0 254   0    0 254   0    0 254   0    0 254   0    0 254   0    0 254   0    0 254   0    0 254   0    0 254   0    0 254   0    0 254   0    0 254   0    0 254   0    0 254   0    0 254   0    0 254   0    0 254   0    0 254   0    0 254   0    0 254   0    0 254   0    0 254   0  
  0 254   0    0 254   0    0 254   0    0 254   0    0 254   0    0 254   0    0 254   0    0 254   0    0 254   0    0 254   0    0 254   0    0 254   0    0 254   0    0 254   0    0 254   0    0 254   0    0 254   0    0 254   0    0 254   0    0 254   0    0 254   0    0 254   0    0 254   0    0 254   0    0 254   0    0 254   0    0 254   0    0 254   0    0 254   0    0 254   0    0 254   0    0 254   0    0 254   0    0 254   0    0 254   0    0 254   0    0 254   0    0 254   0    0 254   0    0 254   0    0 254   0    0 254   0    0 254   0    0 254   0    0 254   0    0 254   0    0 254   0    0 254   0  
  0 254   0    0 254   0    0 254   0    0 254   0    0 254   0    0 254   0    0 254   0    0 254   0    0 254   0    0 254   0    0 254   0    0 254   0    0 254   0    0 254   0    0 254   0    0 254   0    0 254   0    0 254   0    0 254   0    0 254   0    0 254   0    0 254   0    0 254   0    0 254   0    0 254   0    0 254   0    0 254   0    0 254   0    0 254   0    0 254   0    0 254   0    0 254   0    0 254   0    0 254   0    0 254   0    0 254   0    0 254   0    0 254   0    0 254   0    0 254   0    0 254   0    0 254   0    0 254   0    0 254   0    0 254   0    0 254   0    0 254   0   16 242  18  
  0 254   0    0 254   0    0 254   0    0 254   0    0 254   0    0 254   0    0 254   0    0 254   0    0 254   0    0 254   0    0 254   0    0 254   0    0 254   0    0 254   0    0 254   0    0 254   0    0 254   0    0 254   0    0 254   0    0 254   0    0 254   0    0 254   0    0 254   0    0 254   0    0 254   0    0 254   0    0 254   0    0 254   0    0 254   0    0 254   0    0 254   0    0 254   0    0 254   0    0 254   0    0 254   0    0 254   0    0 254   0    0 254   0    0 254   0    0 254   0    0 254   0    0 254   0    0 254   0    0 254   0    0 254   0    0 254   0    0 254   0   36 229  36  
 36 229  36   36 229  36   36 229  36   36 229  36   36 229  36   36 229  36   36 229  36   36 229  36   36 229  36   36 229  36   36 229  36   36 229  36   36 229  36   36 229  36   36 229  36   36 229  36   36 229  36   36 229  36   36 229  36   36 229  36   36 229  36   36 229  36   36 229  36   36 229  36   36 229  36   36 229  36   36 229  36   36 229  36   36 229  36   36 229  36   36 229  36   55 215  54   74 202  74   74 202  74   74 202  74   74 202  74   74 202  74   74 202  74   74 202  74   74 202  74   74 202  74   74 202  74   74 202  74   74 202  74   74 202  74   74 202  74   74 202  74   91 189  93  
 74 202  74   74 202  74   74 202  74   74 202  74   74 202  74   74 202  74   74 202  74   74 202  74   74 202  74   74 202  74   74 202  74   74 202  74   74 202  74   74 202  74   74 202  74   74 202  74   74 202  74   74 202  74   74 202  74   74 202  74   74 202  74   74 202  74   74 202  74   74 202  74   74 202  74   74 202  74   74 202  74   74 202  74   74 202  74   74 202  74   74 202  74  111 176 111  255 255 255  255 255 255  255 255 255  255 255 255  255 255 255  255 255 255  255 255 255  255 255 255  255 255 255  255 255 255  255 255 255  255 255 255  255 255 255  255 255 255  255 255 255  255 255 255  
217 255 217  217 255 217  217 255 217  217 255 217  217 255 217  217 255 217  217 255 217  217 255 217  217 255 217  217 255 217  217 255 217  217 255 217  217 255 217  217 255 217  217 255 217  217 255 217  217 255 217  217 255 217  217 255 217  217 255 217  217 255 217  217 255 217  217 255 217  217 255 217  217 255 217  217 255 217  217 255 217  217 255 217  217 255 217  217 255 217  217 255 217  236 255 235  255 255 255  255 255 255  255 255 255  255 255 255  255 255 255  255 255 255  255 255 255  255 255 255  255 255 255  255 255 255  255 255 255  255 255 255  255 255 255  255 255 255  255 255 255  255 255 255  
255 255 255  255 255 255  255 255 255  255 255 255  255 255 255  255 255 255  255 255 255  255 255 255  255 255 255  255 255 255  255 255 255  255 255 255  255 255 255  255 255 255  255 255 255  255 255 255  255 255 255  255 255 255  255 255 255  255 255 255  255 255 255  255 255 255  255 255 255  255 255 255  255 255 255  255 255 255  255 255 255  255 255 255  255 255 255  255 255 255  255 255 255  255 255 255  255 255 255  255 255 255  255 255 255  255 255 255  255 255 255  255 255 255  255 255 255  255 255 255  255 255 255  255 255 255  255 255 255  255 255 255  255 255 255  255 255 255  255 255 255  255 255 255  
255 255 255  255 255 255  255 255 255  255 255 255  255 255 255  255 255 255  255 255 255  255 255 255  255 255 255  255 255 255  255 255 255  255 255 255  255 255 255  255 255 255  255 255 255  255 255 255  255 255 255  255 255 255  255 255 255  255 255 255  255 255 255  255 255 255  255 255 255  255 255 255  255 255 255  255 255 255  255 255 255  255 255 255  255 255 255  255 255 255  255 255 255  255 255 255  255 255 255  255 255 255  255 255 255  255 255 255  255 255 255  255 255 255  255 255 255  255 255 255  255 255 255  255 255 255  255 255 255  255 255 255  255 255 255  255 255 255  255 255 255  255 255 255  
255 255 255  255 255 255  255 255 255  255 255 255  255 255 255  255 255 255  255 255 255  255 255 255  255 255 255  255 255 255  255 255 255  255 255 255  255 255 255  255 255 255  255 255 255  255 255 255  255 255 255  255 255 255  255 255 255  255 255 255  255 255 255  255 255 255  255 255 255  255 255 255  255 255 255  255 255 255  255 255 255  255 255 255  255 255 255  255 255 255  255 255 255  255 255 255  255 255 255  255 255 255  255 255 255  255 255 255  255 255 255  255 255 255  255 255 255  255 255 255  255 255 255  255 255 255  255 255 255  255 255 255  255 255 255  255 255 255  255 255 255  255 255 255  
255 255 255  255 255 255  255 255 255  255 255 255  255 255 255  255 255 255  255 255 255  255 255 255  255 255 255  255 255 255  255 255 255  255 255 255  255 255 255  255 255 255  255 255 255  255 255 255  255 255 255  255 255 255  255 255 255  255 255 255  255 255 255  255 255 255  255 255 255  255 255 255  255 255 255  255 255 255  255 255 255  255 255 255  255 255 255  255 255 255  255 255 255  255 255 255  255 255 255  255 255 255  255 255 255  255 255 255  255 255 255  255 255 255  255 255 255  255 255 255  255 255 255  255 255 255  255 255 255  255 255 255  255 255 255  255 255 255  255 255 255  255 255 255  
255 255 255  255 255 255  255 255 255  255 255 255  255 255 255  255 255 255  255 255 255  255 255 255  255 255 255  255 255 255  255 255 255  255 255 255  255 255 255  255 255 255  255 255 255  255 255 255  255 255 255  255 255 255  255 255 255  255 255 255  255 255 255  255 255 255  255 255 255  255 255 255  255 255 255  255 255 255  255 255 255  255 255 255  255 255 255  255 255 255  255 255 255  255 255 255  255 255 255  255 255 255  255 255 255  255 255 255  255 255 255  255 255 255  255 255 255  255 255 255  255 255 255  255 255 255  255 255 255  255 255 255  255 255 255  255 255 255  255 255 255  255 255 255  
255 255 255  255 255 255  255 255 255  255 255 255  255 255 255  255 255 255  255 255 255  255 255 255  255 255 255  255 255 255  255 255 255  255 255 255  255 255 255  255 255 255  255 255 255  255 255 255  255 255 255  255 255 255  255 255 255  255 255 255  255 255 255  255 255 255  255 255 255  255 255 255  255 255 255  255 255 255  255 255 255  255 255 255  255 255 255  255 255 255  255 255 255  255 255 255  255 255 255  255 255 255  255 255 255  255 255 255  255 255 255  255 255 255  255 255 255  255 255 255  255 255 255  255 255 255  255 255 255  255 255 255  255 255 255  255 255 255  255 255 255  247 248 255  
255 255 255  255 255 255  255 255 255  255 255 255  255 255 255  255 255 255  255 255 255  255 255 255  255 255 255  255 255 255  255 255 255  255 255 255  255 255 255  255 255 255  255 255 255  255 255 255  255 255 255  255 255 255  255 255 255  255 255 255  255 255 255  255 255 255  255 255 255  255 255 255  255 255 255  255 255 255  255 255 255  255 255 255  255 255 255  255 255 255  255 255 255  255 255 255  255 255 255  255 255 255  255 255 255  255 255 255  255 255 255  255 255 255  255 255 255  255 255 255  255 255 255  255 255 255  255 255 255  255 255 255  255 255 255  255 255 255  255 255 255  241 241 255  
241 241 255  241 241 255  241 241 255  241 241 255  241 241 255  241 241 255  241 241 255  241 241 255  241 241 255  241 241 255  241 241 255  241 241 255  241 241 255  241 241 255  241 241 255  241 241 255  241 241 255  241 241 255  241 241 255  241 241 255  241 241 255  241 241 255  241 241 255  241 241 255  241 241 255  241 241 255  241 241 255  241 241 255  241 241 255  241 241 255  241 241 255  241 241 255  241 241 255  241 241 255  241 241 255  241 241 255  241 241 255  241 241 255  241 241 255  241 241 255  241 241 255  241 241 255  241 241 255  241 241 255  241 241 255  241 241 255  241 241 255  233 234 255  
  0   0 252    0   0 252    0   0 252    0   0 252    0   0 252    0   0 252    0   0 252    0   0 252    0   0 252    0   0 252    0   0 252    0   0 252    0   0 252    0   0 252    0   0 252    0   0 252    0   0 252    0   0 252    0   0 252    0   0 252    0   0 252    0   0 252    0   0 252    0   0 252    0   0 252    0   0 252    0   0 252    0   0 252    0   0 252    0   0 252    0   0 252    0   0 252    0   0 252    0   0 252    0   0 252    0   0 252    0   0 252    0   0 252    0   0 252    0   0 252    0   0 252    0   0 252    0   0 252    0   0 252    0   0 252    0   0 252    0   0 252    0   0 252  
  0   0 252    0   0 252    0   0 252    0   0 252    0   0 252    0   0 252    0   0 252    0   0 252    0   0 252    0   0 252    0   0 252    0   0 252    0   0 252    0   0 252    0   0 252    0   0 252    0   0 252    0   0 252    0   0 252    0   0 252    0   0 252    0   0 252    0   0 252    0   0 252    0   0 252    0   0 252    0   0 252    0   0 252    0   0 252    0   0 252    0   0 252    0   0 252    0   0 252    0   0 252    0   0 252    0   0 252    0   0 252    0   0 252    0   0 252    0   0 252    0   0 252    0   0 252    0   0 252    0   0 252    0   0 252    0   0 252    0   0 252    0   0 252  
  0   0 252    0   0 252    0   0 252    0   0 252    0   0 252    0   0 252    0   0 252    0   0 252    0   0 252    0   0 252    0   0 252    0   0 252    0   0 252    0   0 252    0   0 252    0   0 252    0   0 252    0   0 252    0   0 252    0   0 252    0   0 252    0   0 252    0   0 252    0   0 252    0   0 252    0   0 252    0   0 252    0   0 252    0   0 252    0   0 252    0   0 252    0   0 252    0   0 252    0   0 252    0   0 252    0   0 252    0   0 252    0   0 252    0   0 252    0   0 252    0   0 252    0   0 252    0   0 252    0   0 252    0   0 252    0   0 252    0   0 252    0   0 252  
  0   0 252    0   0 252    0   0 252    0   0 252    0   0 252    0   0 252    0   0 252    0   0 252    0   0 252    0   0 252    0   0 252    0   0 252    0   0 252    0   0 252    0   0 252    0   0 252    0   0 252    0   0 252    0   0 252    0   0 252    0   0 252    0   0 252    0   0 252    0   0 252    0   0 252    0   0 252    0   0 252    0   0 252    0   0 252    0   0 252    0   0 252    0   0 252    0   0 252    0   0 252    0   0 252    0   0 252    0   0 252    0   0 252    0   0 252    0   0 252    0   0 252    0   0 252    0   0 252    0   0 252    0   0 252    0   0 252    0   0 252    0   0 252  
  0   0 252    0   0 252    0   0 252    0   0 252    0   0 252    0   0 252    0   0 252    0   0 252    0   0 252    0   0 252    0   0 252    0   0 252    0   0 252    0   0 252    0   0 252    0   0 252    0   0 252    0   0 252    0   0 252    0   0 252    0   0 252    0   0 252    0   0 252    0   0 252    0   0 252    0   0 252    0   0 252    0   0 252    0   0 252    0   0 252    0   0 252    0   0 252    0   0 252    0   0 252    0   0 252    0   0 252    0   0 252    0   0 252    0   0 252    0   0 252    0   0 252    0   0 252    0   0 252    0   0 252    0   0 252    0   0 252    0   0 252    0   0 252  
  0   0 252    0   0 252    0   0 252    0   0 252    0   0 252    0   0 252    0   0 252    0   0 252    0   0 252    0   0 252    0   0 252    0   0 252    0   0 252    0   0 252    0   0 252    0   0 252    0   0 252    0   0 252    0   0 252    0   0 252    0   0 252    0   0 252    0   0 252    0   0 252    0   0 252    0   0 252    0   0 252    0   0 252    0   0 252    0   0 252    0   0 252    0   0 252    0   0 252    0   0 252    0   0 252    0   0 252    0   0 252    0   0 252    0   0 252    0   0 252    0   0 252    0   0 252    0   0 252    0   0 252    0   0 252    0   0 252    0   0 252    0   0 252  
  0   0 252    0   0 252    0   0 252    0   0 252    0   0 252    0   0 252    0   0 252    0   0 252    0   0 252    0   0 252    0   0 252    0   0 252    0   0 252    0   0 252    0   0 252    0   0 252    0   0 252    0   0 252    0   0 252    0   0 252    0   0 252    0   0 252    0   0 252    0   0 252    0   0 252    0   0 252    0   0 252    0   0 252    0   0 252    0   0 252    0   0 252    0   0 252    0   0 252    0   0 252    0   0 252    0   0 252    0   0 252    0   0 252    0   0 252    0   0 252    0   0 252    0   0 252    0   0 252    0   0 252    0   0 252    0   0 252    0   0 252    0   0 252  
  0   0 252    0   0 252    0   0 252    0   0 252    0   0 252    0   0 252    0   0 252    0   0 252    0   0 252    0   0 252    0   0 252    0   0 252    0   0 252    0   0 252    0   0 252    0   0 252    0   0 252    0   0 252    0   0 252    0   0 252    0   0 252    0   0 252    0   0 252    0   0 252    0   0 252    0   0 252    0   0 252    0   0 252    0   0 252    0   0 252    0   0 252    0   0 252    0   0 252    0   0 252    0   0 252    0   0 252    0   0 252    0   0 252    0   0 252    0   0 252    0   0 252    0   0 252    0   0 252    0   0 252    0   0 252    0   0 252    0   0 252    0   0 252  
  0   0 252    0   0 252    0   0 252    0   0 252    0   0 252    0   0 252    0   0 252    0   0 252    0   0 252    0   0 252    0   0 252    0   0 252    0   0 252    0   0 252    0   0 252    0   0 252    0   0 252    0   0 252    0   0 252    0   0 252    0   0 252    0   0 252    0   0 252    0   0 252    0   0 252    0   0 252    0   0 252    0   0 252    0   0 252    0   0 252    0   0 252    0   0 252    0   0 252    0   0 252    0   0 252    0   0 252    0   0 252    0   0 252    0   0 252    0   0 252    0   0 252    0   0 252    0   0 252    0   0 252    0   0 252    0   0 252    0   0 252    0   0 252  
  0   0 252    0   0 252    0   0 252    0   0 252    0   0 252    0   0 252    0   0 252    0   0 252    0   0 252    0   0 252    0   0 252    0   0 252    0   0 252    0   0 252    0   0 252    0   0 252    0   0 252    0   0 252    0   0 252    0   0 252    0   0 252    0   0 252    0   0 252    0   0 252    0   0 252    0   0 252    0   0 252    0   0 252    0   0 252    0   0 252    0   0 252    0   0 252    0   0 252    0   0 252    0   0 252    0   0 252    0   0 252    0   0 252    0   0 252    0   0 252    0   0 252    0   0 252    0   0 252    0   0 252    0   0 252    0   0 252    0   0 252    6   7 195  
  0   0 252    0   0 252    0   0 252    0   0 252    0   0 252    0   0 252    0   0 252    0   0 252    0   0 252    0   0 252    0   0 252    0   0 252    0   0 252    0   0 252    0   0 252    0   0 252    0   0 252    0   0 252    0   0 252    0   0 252    0   0 252    0   0 252    0   0 252    0   0 252    0   0 252    0   0 252    0   0 252    0   0 252    0   0 252    0   0 252    0   0 252    0   0 252    0   0 252    0   0 252    0   0 252    0   0 252    0   0 252    0   0 252    0   0 252    0   0 252    0   0 252    0   0 252    0   0 252    0   0 252    0   0 252    0   0 252    0   0 252   14  14 139  
 14  14 139   14  14 139   14  14 139   14  14 139   14  14 139   14  14 139   14  14 139   14  14 139   14  14 139   14  14 139   14  14 139   14  14 139   14  14 139   14  14 139   14  14 139   14  14 139   14  14 139   14  14 139   14  14 139   14  14 139   14  14 139   14  14 139   14  14 139   14  14 139   14  14 139   14  14 139   14  14 139   14  14 139   14  14 139   14  14 139   14  14 139   14  14 139   14  14 139   14  14 139   14  14 139   14  14 139   14  14 139   14  14 139   14  14 139   14  14 139   14  14 139   14  14 139   14  14 139   14  14 139   14  14 139   14  14 139   14  14 139   20  21  82  
255 255 255  255 255 255  255 255 255  255 255 255  255 255 255  255 255 255  255 255 255  255 255 255  255 255 255  255 255 255  255 255 255  255 255 255  255 255 255  255 255 255  255 255 255  255 255 255  255 255 255  255 255 255  255 255 255  255 255 255  255 255 255  255 255 255  255 255 255  255 255 255  255 255 255  255 255 255  255 255 255  255 255 255  255 255 255  255 255 255  255 255 255  255 255 255  255 255 255  255 255 255  255 255 255  255 255 255  255 255 255  255 255 255  255 255 255  255 255 255  255 255 255  255 255 255  255 255 255  255 255 255  255 255 255  255 255 255  255 255 255  255 255 255  
255 255 255  255 255 255  255 255 255  255 255 255  255 255 255  255 255 255  255 255 255  255 255 255  255 255 255  255 255 255  255 255 255  255 255 255  255 255 255  255 255 255  255 255 255  255 255 255  255 255 255  255 255 255  255 255 255  255 255 255  255 255 255  255 255 255  255 255 255  255 255 255  255 255 255  255 255 255  255 255 255  255 255 255  255 255 255  255 255 255  255 255 255  255 255 255  255 255 255  255 255 255  255 255 255  255 255 255  255 255 255  255 255 255  255 255 255  255 255 255  255 255 255  255 255 255  255 255 255  255 255 255  255 255 255  255 255 255  255 255 255  255 255 255  
255 255 255  255 255 255  255 255 255  255 255 255  255 255 255  255 255 255  255 255 255  255 255 255  255 255 255  255 255 255  255 255 255  255 255 255  255 255 255  255 255 255  255 255 255  255 255 255  255 255 255  255 255 255  255 255 255  255 255 255  255 255 255  255 255 255  255 255 255  255 255 255  255 255 255  255 255 255  255 255 255  255 255 255  255 255 255  255 255 255  255 255 255  255 255 255  255 255 255  255 255 255  255 255 255  255 255 255  255 255 255  255 255 255  255 255 255  255 255 255  255 255 255  255 255 255  255 255 255  255 255 255  255 255 255  255 255 255  255 255 255  255 255 255  
255 255 255  255 255 255  255 255 255  255 255 255  255 255 255  255 255 255  255 255 255  255 255 255  255 255 255  255 255 255  255 255 255  255 255 255  255 255 255  255 255 255  255 255 255  255 255 255  255 255 255  255 255 255  255 255 255  255 255 255  255 255 255  255 255 255  255 255 255  255 255 255  255 255 255  255 255 255  255 255 255  255 255 255  255 255 255  255 255 255  255 255 255  255 255 255  255 255 255  255 255 255  255 255 255  255 255 255  255 255 255  255 255 255  255 255 255  255 255 255  255 255 255  255 255 255  255 255 255  255 255 255  255 255 255  255 255 255  255 255 255  255 255 255  
255 255 255  255 255 255  255 255 255  255 255 255  255 255 255  255 255 255  255 255 255  255 255 255  255 255 255  255 255 255  255 255 255  255 255 255  255 255 255  255 255 255  255 255 255  255 255 255  255 255 255  255 255 255  255 255 255  255 255 255  255 255 255  255 255 255  255 255 255  255 255 255  255 255 255  255 255 255  255 255 255  255 255 255  255 255 255  255 255 255  255 255 255  255 255 255  255 255 255  255 255 255  255 255 255  255 255 255  255 255 255  255 255 255  255 255 255  255 255 255  255 255 255  255 255 255  255 255 255  255 255 255  255 255 255  255 255 255  255 255 255  255 255 255  
255 255 255  255 255 255  255 255 255  255 255 255  255 255 255  255 255 255  255 255 255  255 255 255  255 255 255  255 255 255  255 255 255  255 255 255  255 255 255  255 255 255  255 255 255  255 255 255  255 255 255  255 255 255  255 255 255  255 255 255  255 255 255  255 255 255  255 255 255  255 255 255  255 255 255  255 255 255  255 255 255  255 255 255  255 255 255  255 255 255  255 255 255  255 255 255  255 255 255  255 255 255  255 255 255  255 255 255  255 255 255  255 255 255  255 255 255  255 255 255  255 255 255  255 255 255  255 255 255  255 255 255  255 255 255  255 255 255  255 255 255  255 255 255  
255 255 255  255 255 255  255 255 255  255 255 255  255 255 255  255 255 255  255 255 255  255 255 255  255 255 255  255 255 255  255 255 255  255 255 255  255 255 255  255 255 255  255 255 255  255 255 255  255 255 255  255 255 255  255 255 255  255 255 255  255 255 255  255 255 255  255 255 255  255 255 255  255 255 255  255 255 255  255 255 255  255 255 255  255 255 255  255 255 255  255 255 255  255 255 255    0   0   0    0   0   0    0   0   0    0   0   0    0   0   0    0   0   0    0   0   0    0   0   0    0   0   0    0   0   0    0   0   0    0   0   0    0   0   0    0   0   0    0   0   0    0   0   0  
  0   0   0    0   0   0    0   0   0    0   0   0    0   0   0    0   0   0    0   0   0    0   0   0    0   0   0    0   0   0    0   0   0    0   0   0    0   0   0    0   0   0    0   0   0    0   0   0    0   0   0    0   0   0    0   0   0    0   0   0    0   0   0    0   0   0    0   0   0    0   0   0    0   0   0    0   0   0    0   0   0    0   0   0    0   0   0    0   0   0    0   0   0    0   0   0    0   0   0    0   0   0    0   0   0    0   0   0    0   0   0    0   0   0    0   0   0    0   0   0    0   0   0    0   0   0    0   0   0    0   0   0    0   0   0    0   0   0    0   0   0    0   0   0  
  0   0   0    0   0   0    0   0   0    0   0   0    0   0   0    0   0   0    0   0   0    0   0   0    0   0   0    0   0   0    0   0   0    0   0   0    0   0   0    0   0   0    0   0   0    0   0   0    0   0   0    0   0   0    0   0   0    0   0   0    0   0   0    0   0   0    0   0   0    0   0   0    0   0   0    0   0   0    0   0   0    0   0   0    0   0   0    0   0   0    0   0   0    0   0   0    0   0   0    0   0   0    0   0   0    0   0   0    0   0   0    0   0   0    0   0   0    0   0   0    0   0   0    0   0   0    0   0   0    0   0   0    0   0   0    0   0   0    0   0   0    0   0   0  
  0   0   0    0   0   0    0   0   0    0   0   0    0   0   0    0   0   0    0   0   0    0   0   0    0   0   0    0   0   0    0   0   0    0   0   0    0   0   0    0   0   0    0   0   0    0   0   0    0   0   0    0   0   0    0   0   0    0   0   0    0   0   0    0   0   0    0   0   0    0   0   0    0   0   0    0   0   0    0   0   0    0   0   0    0   0   0    0   0   0    0   0   0    0   0   0    0   0   0    0   0   0    0   0   0    0   0   0    0   0   0    0   0   0    0   0   0    0   0   0    0   0   0    0   0   0    0   0   0    0   0   0    0   0   0    0   0   0    0   0   0    0   0   0  
  0   0   0    0   0   0    0   0   0    0   0   0    0   0   0    0   0   0    0   0   0    0   0   0    0   0   0    0   0   0    0   0   0    0   0   0    0   0   0    0   0   0    0   0   0    0   0   0    0   0   0    0   0   0    0   0   0    0   0   0    0   0   0    0   0   0    0   0   0    0   0   0    0   0   0    0   0   0    0   0   0    0   0   0    0   0   0    0   0   0    0   0   0    0   0   0    0   0   0    0   0   0    0   0   0    0   0   0    0   0   0    0   0   0    0   0   0    0   0   0    0   0   0    0   0   0    0   0   0    0   0   0    0   0   0    0   0   0    0   0   0    0   0   0  
  0   0   0    0   0   0    0   0   0    0   0   0    0   0   0    0   0   0    0   0   0    0   0   0    0   0   0    0   0   0    0   0   0    0   0   0    0   0   0    0   0   0    0   0   0    0   0   0    0   0   0    0   0   0    0   0   0    0   0   0    0   0   0    0   0   0    0   0   0    0   0   0    0   0   0    0   0   0    0   0   0    0   0   0    0   0   0    0   0   0    0   0   0    0   0   0    0   0   0    0   0   0    0   0   0    0   0   0    0   0   0    0   0   0    0   0   0    0   0   0    0   0   0    0   0   0    0   0   0    0   0   0    0   0   0    0   0   0    0   0   0    0   0   0  
  0   0   0    0   0   0    0   0   0    0   0   0    0   0   0    0   0   0    0   0   0    0   0   0    0   0   0    0   0   0    0   0   0    0   0   0    0   0   0    0   0   0    0   0   0    0   0   0    0   0   0    0   0   0    0   0   0    0   0   0    0   0   0    0   0   0    0   0   0    0   0   0    0   0   0    0   0   0    0   0   0    0   0   0    0   0   0    0   0   0    0   0   0    0   0   0    0   0   0    0   0   0    0   0   0    0   0   0    0   0   0    0   0   0    0   0   0    0   0   0    0   0   0    0   0   0    0   0   0    0   0   0    0   0   0    0   0   0    0   0   0    0   0   0  
  0   0   0    0   0   0    0   0   0    0   0   0    0   0   0    0   0   0    0   0   0    0   0   0    0   0   0    0   0   0    0   0   0    0   0   0    0   0   0    0   0   0    0   0   0    0   0   0    0   0   0    0   0   0    0   0   0    0   0   0    0   0   0    0   0   0    0   0   0    0   0   0    0   0   0    0   0   0    0   0   0    0   0   0    0   0   0    0   0   0    0   0   0    0   0   0    0   0   0    0   0   0    0   0   0    0   0   0    0   0   0    0   0   0    0   0   0    0   0   0    0   0   0    0   0   0    0   0   0    0   0   0    0   0   0    0   0   0    0   0   0    0  13   0  
  0   0   0    0   0   0    0   0   0    0   0   0    0   0   0    0   0   0    0   0   0    0   0   0    0   0   0    0   0   0    0   0   0    0   0   0    0   0   0    0   0   0    0   0   0    0   0   0    0   0   0    0   0   0    0   0   0    0   0   0    0   0   0    0   0   0    0   0   0    0   0   0    0   0   0    0   0   0    0   0   0    0   0   0    0   0   0    0   0   0    0   0   0    0   0   0    0   0   0    0   0   0    0   0   0    0   0   0    0   0   0    0   0   0    0   0   0    0   0   0    0   0   0    0   0   0    0   0   0    0   0   0    0   0   0    0   0   0    0   0   0    0  25   0  
  0  25   0    0  25   0    0  25   0    0  25   0    0  25   0    0  25   0    0  25   0    0  25   0    0  25   0    0  25   0    0  25   0    0  25   0    0  25   0    0  25   0    0  25   0    0  25   0    0  25   0    0  25   0    0  25   0    0  25   0    0  25   0    0  25   0    0  25   0    0  25   0    0  25   0    0  25   0    0  25   0    0  25   0    0  25   0    0  25   0    0  25   0    0  25   0    0  25   0    0  25   0    0  25   0    0  25   0    0  25   0    0  25   0    0  25   0    0  25   0    0  25   0    0  25   0    0  25   0    0  25   0    0  25   0    0  25   0    0  25   0    0  38   0  
